<?xml version="1.0" standalone="no"?>
<!DOCTYPE svg PUBLIC "-//W3C//DTD SVG 20010904//EN"
 "http://www.w3.org/TR/2001/REC-SVG-20010904/DTD/svg10.dtd">
<svg version="1.0" xmlns="http://www.w3.org/2000/svg"
 width="512.000000pt" height="512.000000pt" viewBox="0 0 512.000000 512.000000"
 preserveAspectRatio="xMidYMid meet">

<g transform="translate(0.000000,512.000000) scale(0.100000,-0.100000)"
fill="#000000" stroke="none">
<path d="M2400 5114 c-489 -42 -875 -173 -1253 -424 -504 -335 -875 -838
-1042 -1411 -72 -247 -99 -449 -99 -724 1 -226 15 -359 60 -563 141 -633 531
-1196 1084 -1564 676 -450 1516 -548 2300 -267 140 50 377 172 520 267 386
257 682 594 885 1007 40 83 87 188 104 235 211 589 211 1191 0 1780 -17 47
-64 153 -104 235 -202 412 -499 750 -882 1005 -329 219 -679 351 -1073 405
-113 15 -411 27 -500 19z m1760 -2554 c0 -3 -576 -292 -1280 -642 l-1280 -636
0 1278 0 1279 1280 -637 c704 -350 1280 -639 1280 -642z"/>
</g>
</svg>
